HIERARCHY
ROOT Hips
{
	OFFSET 0.00000 0.00000 0.00000
	CHANNELS 6 Xposition Yposition Zposition Zrotation Yrotation Xrotation 
	JOINT LHipJoint
	{
		OFFSET 0 0 0
		CHANNELS 3 Zrotation Yrotation Xrotation
		JOINT LeftHip
		{
			OFFSET 1.64549 -1.70879 0.84566
			CHANNELS 3 Zrotation Yrotation Xrotation
			JOINT LeftKnee
			{
				OFFSET 2.24963 -6.18082 0.00000
				CHANNELS 3 Zrotation Yrotation Xrotation
				JOINT LeftAnkle
				{
					OFFSET 2.71775 -7.46697 0.00000
					CHANNELS 3 Zrotation Yrotation Xrotation
					JOINT LeftToe
					{
						OFFSET 0.18768 -0.51564 2.24737
						CHANNELS 3 Zrotation Yrotation Xrotation
						End Site
						{
							OFFSET 0.00000 -0.00000 1.15935
						}
					}
				}
			}
		}
	}
	JOINT RHipJoint
	{
		OFFSET 0 0 0
		CHANNELS 3 Zrotation Yrotation Xrotation
		JOINT RightHip
		{
			OFFSET -1.58830 -1.70879 0.84566
			CHANNELS 3 Zrotation Yrotation Xrotation
			JOINT RightKnee
			{
				OFFSET -2.25006 -6.18201 0.00000
				CHANNELS 3 Zrotation Yrotation Xrotation
				JOINT RightAnkle
				{
					OFFSET -2.72829 -7.49593 0.00000
					CHANNELS 3 Zrotation Yrotation Xrotation
					JOINT RightToe
					{
						OFFSET -0.21541 -0.59185 2.10643
						CHANNELS 3 Zrotation Yrotation Xrotation
						End Site
						{
							OFFSET -0.00000 -0.00000 1.09838
						}
					}
				}
			}
		}
	}
	JOINT lowerback
	{
		OFFSET 0 0 0
		CHANNELS 3 Zrotation Yrotation Xrotation
		JOINT Chest
		{
			OFFSET 0.03142 2.10496 -0.11038
			CHANNELS 3 Zrotation Yrotation Xrotation
			JOINT Chest2
			{
				OFFSET -0.01863 2.10897 -0.06956
				CHANNELS 3 Zrotation Yrotation Xrotation
				JOINT lowerneck
				{
					OFFSET 0 0 0
					CHANNELS 3 Zrotation Yrotation Xrotation
					JOINT Neck
					{
						OFFSET -0.02267 1.73238 0.00451
						CHANNELS 3 Zrotation Yrotation Xrotation
						JOINT Head
						{
							OFFSET -0.05808 1.54724 -0.61749
							CHANNELS 3 Zrotation Yrotation Xrotation
							End Site
							{
								OFFSET -0.01396 1.71468 -0.21082
							}
						}
					}
				}
				JOINT LeftCollar
				{
					OFFSET 0 0 0
					CHANNELS 3 Zrotation Yrotation Xrotation
					JOINT LeftShoulder
					{
						OFFSET 3.44898 0.50298 0.21920
CHANNELS 3 Zrotation Xrotation Yrotation
						JOINT LeftElbow
						{
OFFSET 0 -5.419170 -0.000000
CHANNELS 3 Zrotation Xrotation Yrotation
							JOINT LeftWrist
							{
OFFSET 0 -2.443730 0.000000
CHANNELS 3 Zrotation Xrotation Yrotation
								JOINT lhand
								{
									OFFSET 0 0 0
CHANNELS 3 Zrotation Xrotation Yrotation
									JOINT LFingers
									{
OFFSET 0 -0.727500 0.000000
CHANNELS 3 Zrotation Xrotation Yrotation
										End Site
										{
OFFSET 0 -0.586530 0.000000
										}
									}
								}
								JOINT LThumb
								{
OFFSET 0 0.000000 0.000000
CHANNELS 3 Zrotation Xrotation Yrotation
									End Site
									{
OFFSET 0 -0.595490 0.595490
									}
								}
							}
						}
					}
				}
				JOINT RightCollar
				{
					OFFSET 0 0 0
					CHANNELS 3 Zrotation Yrotation Xrotation
					JOINT RightShoulder
					{
						OFFSET -3.23015 0.55830 0.31051
CHANNELS 3 Zrotation Xrotation Yrotation
						JOINT RightElbow
						{
OFFSET 0 -5.589760 0.000140
CHANNELS 3 Zrotation Xrotation Yrotation
							JOINT RightWrist
							{
OFFSET 0 -2.480600 0.000000
CHANNELS 3 Zrotation Xrotation Yrotation
								JOINT rhand
								{
									OFFSET 0 0 0
CHANNELS 3 Zrotation Xrotation Yrotation
									JOINT RFingers
									{
OFFSET 0 -0.816010 0.000000
CHANNELS 3 Zrotation Xrotation Yrotation
										End Site
										{
OFFSET 0 -0.657890 0.000000
										}
									}
								}
								JOINT RThumb
								{
OFFSET 0 0.000000 0.000000
CHANNELS 3 Zrotation Xrotation Yrotation
									End Site
									{
OFFSET 0 -0.667930 0.667930
									}
								}
							}
						}
					}
				}
			}
		}
	}
}
MOTION
Frames: 8
Frame Time: 0.008333333333333333
1.924640 16.397867 -12.560993 -10.573907 9.231516 21.285965 0.000000 0.000000 0.000000 -21.407728 -16.435918 -32.409093 3.851294 11.959915 35.590200 6.751856 11.049846 -53.221837 1.987727 8.840383 25.297417 0.000000 0.000000 0.000000 3.351544 27.136112 -31.941489 -4.956469 -13.334544 40.634118 -14.301530 5.807050 -73.594130 -9.199909 -16.934583 56.778761 5.195853 2.151932 -9.453226 9.614057 3.242352 -11.573730 7.549235 1.784286 -7.426631 -2.913145 -6.445521 -5.485050 -4.480884 -7.477005 29.758482 -1.851840 -4.213488 10.330321 0.000000 0.000000 0.000000 77.213089 18.464393 3.181690 8.523106 -14.397213 1.078481 -14.185720 45.621426 -30.818448 0.000000 0.000000 0.000000 -7.125000 0.000000 0.000000 -47.216701 54.408948 13.114529 0.000000 0.000000 0.000000 -90.541189 0.574552 -38.735787 -5.610383 -9.610799 -0.471981 21.047903 78.335893 5.857784 0.000000 0.000000 0.000000 7.125000 0.000000 0.000000 37.077300 33.368367 13.075722
1.981197 16.380929 -12.570103 -9.877972 10.524194 20.641098 0.000000 0.000000 0.000000 -22.506031 -16.271610 -31.659560 3.841007 11.945847 35.540549 6.435597 11.236574 -52.190608 1.873318 8.596359 24.540974 0.000000 0.000000 0.000000 1.236266 30.666943 -34.143748 -5.038973 -13.427614 40.990909 -15.302000 9.958477 -76.338757 -9.474301 -17.103416 57.716433 4.632659 2.019865 -8.901299 9.663965 3.155915 -11.450293 7.902791 1.793494 -7.619424 -3.117961 -6.794005 -4.763958 -4.884531 -7.857160 29.119021 -1.937742 -4.446762 9.944182 0.000000 0.000000 0.000000 81.882521 14.872872 -1.018435 8.893770 -14.990973 1.172516 -13.398505 43.287543 -31.321605 0.000000 0.000000 0.000000 -7.125000 0.000000 0.000000 -47.013823 54.931444 13.693383 0.000000 0.000000 0.000000 -94.869933 -1.443563 -28.107948 -5.709906 -9.777531 -0.488756 21.511265 69.017502 6.102023 0.000000 0.000000 0.000000 7.125000 0.000000 0.000000 37.468177 33.521875 13.096689
2.047309 16.356409 -12.587069 -9.739999 12.525365 19.617191 0.000000 0.000000 0.000000 -23.131627 -15.670186 -30.738416 3.809799 11.902955 35.389436 5.771938 12.137212 -50.197720 1.411478 7.510064 21.237453 0.000000 0.000000 0.000000 -0.062236 33.380913 -36.313351 -5.123372 -13.521337 41.352880 -16.142001 12.361076 -78.747984 -9.478282 -17.105768 57.729866 4.991579 1.707739 -7.835276 9.934601 2.854555 -11.253959 7.963240 1.629648 -7.976303 -3.200594 -7.014749 -4.729813 -5.526983 -7.988563 28.672632 -2.137503 -4.579455 9.747941 0.000000 0.000000 0.000000 86.023048 11.287580 -2.826902 9.020392 -15.192950 1.205468 -12.420115 43.366333 -31.083490 0.000000 0.000000 0.000000 -7.125000 0.000000 0.000000 -45.944647 54.950951 13.292280 0.000000 0.000000 0.000000 -99.253583 -3.994229 -17.741257 -5.875062 -10.053595 -0.517238 20.543607 59.025940 5.965457 0.000000 0.000000 0.000000 7.125000 0.000000 0.000000 36.802410 33.515302 12.747693
2.096284 16.330357 -12.591190 -8.718890 15.004833 18.192192 0.000000 0.000000 0.000000 -24.833008 -14.177340 -29.229773 3.773699 11.852980 35.213744 5.103198 12.183004 -47.704337 0.985577 6.311627 17.693757 0.000000 0.000000 0.000000 -2.078964 36.844759 -37.396748 -5.183369 -13.587281 41.608809 -17.340523 15.578361 -82.224581 -9.481296 -17.107508 57.739981 4.409364 0.995104 -6.503904 10.114889 2.015468 -10.747501 8.454147 1.257686 -8.095453 -3.437359 -7.118316 -4.773747 -5.979767 -7.992034 27.819346 -2.220029 -4.644475 9.440928 0.000000 0.000000 0.000000 89.940414 8.129965 -5.192263 9.452487 -15.878393 1.321487 -11.092056 42.403418 -30.893239 0.000000 0.000000 0.000000 -7.125000 0.000000 0.000000 -44.593672 55.075839 12.899733 0.000000 0.000000 0.000000 -103.634345 -6.712520 -6.723016 -6.508459 -11.107146 -0.633964 22.559137 44.293309 8.800664 0.000000 0.000000 0.000000 7.125000 0.000000 0.000000 39.288634 35.693046 11.310779
2.166272 16.303422 -12.612774 -8.317861 16.475064 17.407731 0.000000 0.000000 0.000000 -25.847828 -12.902717 -28.750709 3.764783 11.840664 35.170532 4.686030 12.034889 -45.992063 0.774683 5.618749 15.682336 0.000000 0.000000 0.000000 -3.940089 37.830721 -40.670269 -5.192554 -13.597417 41.648062 -17.421964 15.550020 -82.464231 -9.473562 -17.102907 57.713711 4.455423 0.857494 -5.665667 10.122953 1.902138 -10.489745 8.418177 1.196485 -8.271839 -3.561141 -7.371992 -4.311460 -6.207128 -8.310609 27.048905 -2.249252 -4.815208 9.072361 0.000000 0.000000 0.000000 94.221957 4.522966 -8.179389 9.944470 -16.652551 1.459080 -12.466488 38.358248 -31.984645 0.000000 0.000000 0.000000 -7.125000 0.000000 0.000000 -46.841630 55.601296 14.459061 0.000000 0.000000 0.000000 -107.598687 -8.965526 2.004316 -7.163119 -12.186987 -0.766154 21.396026 33.781436 9.164521 0.000000 0.000000 0.000000 7.125000 0.000000 0.000000 38.701885 36.143805 10.502130
2.245681 16.270978 -12.657002 -8.037676 18.095678 17.104732 0.000000 0.000000 0.000000 -26.544739 -12.591054 -28.723064 3.796273 11.884236 35.323650 4.393868 11.803172 -44.679683 0.687188 5.296612 14.757154 0.000000 0.000000 0.000000 -5.319885 36.710546 -44.887600 -5.173102 -13.576062 41.565186 -16.441666 15.067212 -79.578711 -9.576496 -17.164508 58.062963 4.767464 0.699760 -5.168628 10.221541 1.748074 -10.360733 8.344933 1.102184 -8.394680 -3.872569 -7.598827 -3.859917 -6.458264 -8.572788 26.087792 -2.242323 -4.975767 8.655558 0.000000 0.000000 0.000000 98.073746 0.775982 -8.618735 10.175267 -17.013189 1.525884 -14.499571 35.337366 -32.656705 0.000000 0.000000 0.000000 -7.125000 0.000000 0.000000 -49.261934 55.667999 15.587933 0.000000 0.000000 0.000000 -111.705383 -11.329648 8.089737 -7.929828 -13.438311 -0.936525 21.286392 25.574802 9.611403 0.000000 0.000000 0.000000 7.125000 0.000000 0.000000 38.835788 36.537686 10.072038
2.297733 16.234627 -12.658237 -7.127344 20.210088 16.180644 0.000000 0.000000 0.000000 -27.870472 -11.884212 -27.496810 3.815246 11.910427 35.415821 4.112008 11.254648 -43.200565 0.522207 4.626718 12.847678 0.000000 0.000000 0.000000 -7.037374 37.305256 -47.348417 -5.184256 -13.588344 41.612831 -15.970717 14.388487 -78.194154 -9.687197 -17.230169 58.437756 4.152510 0.139395 -4.253323 10.309611 1.049343 -9.956668 8.796875 0.799466 -8.396448 -3.837572 -7.760992 -3.547999 -6.973961 -8.738713 24.956596 -2.365908 -5.080729 8.180096 0.000000 0.000000 0.000000 101.885418 -2.525563 -8.080620 10.506546 -17.527881 1.624288 -14.635058 33.139348 -33.201469 0.000000 0.000000 0.000000 -7.125000 0.000000 0.000000 -49.929982 56.023999 16.355356 0.000000 0.000000 0.000000 -115.847460 -13.676431 13.665429 -9.072282 -15.273809 -1.220682 21.766120 16.439075 11.403808 0.000000 0.000000 0.000000 7.125000 0.000000 0.000000 40.012664 37.975187 8.636545
2.344185 16.183622 -12.671529 -6.059117 22.357560 15.593549 0.000000 0.000000 0.000000 -29.261320 -11.531029 -26.429463 3.827562 11.927325 35.475251 3.860902 11.127791 -42.036807 0.359364 3.849461 10.653657 0.000000 0.000000 0.000000 -8.198873 36.037113 -50.299611 -5.231466 -13.639813 41.813367 -15.104555 14.166674 -75.611724 -9.649493 -17.208000 58.310322 3.420810 -0.345715 -3.235761 10.161748 0.472330 -9.884714 9.085326 0.567205 -8.832971 -3.452765 -8.007314 -2.484181 -7.399033 -9.139069 23.648976 -2.479978 -5.243299 7.494960 0.000000 0.000000 0.000000 105.825285 -6.213783 -6.637767 10.913011 -18.154652 1.748839 -15.248131 31.444311 -33.401790 0.000000 0.000000 0.000000 -7.125000 0.000000 0.000000 -50.660856 56.035064 16.710433 0.000000 0.000000 0.000000 -119.297169 -15.845713 16.185844 -10.440143 -17.425002 -1.604290 21.250437 10.655387 12.339266 0.000000 0.000000 0.000000 7.125000 0.000000 0.000000 40.114377 38.827033 7.627119
